# xmcd
#
# Track frame offsets:
#	150
#	19524
#	39705
#	61131
#	77020
#	98238
#
# Disc length: 1601 seconds
#
# Revision: 0
# Processed by: cddbd v1.5.2PL0 Copyright (c) Steve Scherf et al.
# Submitted via: EasyCDDAExtractor 2010.6.0.0
#
DISCID=3e063f06
DTITLE=Terveisin Tero - Promo EP
DYEAR=2011
DGENRE=rap
TTITLE0=Unohdettu
TTITLE1=Pasilankatu 2
TTITLE2=Kuolleiden kaupunki
TTITLE3=P‰iv‰st‰ p‰iv‰‰n
TTITLE4=Virheit‰
TTITLE5=Terveisin Tero
EXTD=
EXTT0=
EXTT1=
EXTT2=
EXTT3=
EXTT4=
EXTT5=
PLAYORDER=
